<svg id="attendance" xmlns="http://www.w3.org/2000/svg" width="72.655" height="68.333" viewBox="0 0 72.655 68.333">
  <path id="Path_581" data-name="Path 581" d="M49.38,375.345a6.439,6.439,0,0,0-3.432-4.479l-7.527-3.213v-.2a13.4,13.4,0,0,1-11.355,0v.2l-7.527,3.213A6.441,6.441,0,0,0,16,376.094v8.184H49.488v-8.184A5.971,5.971,0,0,0,49.38,375.345Z" transform="translate(-15.114 -316.831)" fill="#50a6ea"/>
  <path id="Path_582" data-name="Path 582" d="M23.97,370.865l5.81-2.481a13.386,13.386,0,0,1-2.714-.929v.2l-7.527,3.213A6.441,6.441,0,0,0,16,376.093v8.184h4.43v-8.184a6.44,6.44,0,0,1,3.54-5.228Z" transform="translate(-15.114 -316.83)" fill="#72bcef"/>
  <path id="Path_583" data-name="Path 583" d="M231.8,52v49a2.953,2.953,0,0,1-2.953,2.953H194.3a6.439,6.439,0,0,0-3.432-4.479l-4.838-2.064v-8.68h0A11.945,11.945,0,0,0,189.3,80.5V78.986a3.077,3.077,0,0,0,2.453-3.763,2.314,2.314,0,0,0-2.07-1.763h-.289V68.786a12.2,12.2,0,0,0-3.361-8.423V52a2.953,2.953,0,0,1,2.953-2.953h7.3v2.358h26.749V49.047h5.82A2.953,2.953,0,0,1,231.8,52Z" transform="translate(-160.035 -45.442)" fill="#e5f5fd"/>
  <circle id="Ellipse_7" data-name="Ellipse 7" cx="8.86" cy="8.86" r="8.86" transform="translate(32.173 12.889)" fill="#49c160"/>
  <path id="Path_584" data-name="Path 584" d="M230.792,120.775a8.863,8.863,0,0,1,7.384-8.735,8.86,8.86,0,1,0,0,17.471A8.862,8.862,0,0,1,230.792,120.775Z" transform="translate(-195.665 -99.025)" fill="#5ae070"/>
  <path id="Path_585" data-name="Path 585" d="M67.552,116.767v.136S57.1,118.746,50.084,112.5a36.9,36.9,0,0,1-4.33.109l-.326,5.356a.248.248,0,0,1-.36.2l-1.447-.743a1,1,0,0,1-.54-.82v-4.508a12.236,12.236,0,0,1,24.472,0Z" transform="translate(-38.195 -88.749)" fill="#4a5160"/>
  <path id="Path_586" data-name="Path 586" d="M49.617,103.441A12.2,12.2,0,0,1,56.8,99.947,12.239,12.239,0,0,0,43.08,112.093V116.6a1,1,0,0,0,.54.82l1.447.743a.248.248,0,0,0,.36-.2S44.792,108.266,49.617,103.441Z" transform="translate(-38.195 -88.749)" fill="#58606d"/>
  <path id="Path_587" data-name="Path 587" d="M102.295,332.247v5.2a13.406,13.406,0,0,1-11.355,0v-4.813A12,12,0,0,0,102.295,332.247Z" transform="translate(-78.987 -286.821)" fill="#efc597"/>
  <path id="Path_588" data-name="Path 588" d="M93.893,339.679v-3.805a11.918,11.918,0,0,1-2.953-1.007v4.812a13.4,13.4,0,0,0,7.154,1.18,13.394,13.394,0,0,1-4.2-1.18Z" transform="translate(-78.987 -289.054)" fill="#d8ad82"/>
  <path id="Path_589" data-name="Path 589" d="M49.109,207.134A11.991,11.991,0,0,1,31.081,196.77v-1.518a3.083,3.083,0,0,1-2.454-3.763,2.316,2.316,0,0,1,2.072-1.763l.013,0a1,1,0,0,0,.515.657l1.447.743a.248.248,0,0,0,.36-.2l.326-5.356a36.905,36.905,0,0,0,4.33-.109c7.012,6.248,17.468,4.405,17.468,4.405v-.136h.289a2.314,2.314,0,0,1,2.07,1.763,3.077,3.077,0,0,1-2.453,3.763v1.518A11.945,11.945,0,0,1,51.8,205c-.078.086-.161.17-.244.253A12,12,0,0,1,49.109,207.134Z" transform="translate(-25.802 -161.708)" fill="#ffd8b7"/>
  <path id="Path_590" data-name="Path 590" d="M40.7,232.147A11.992,11.992,0,0,1,34.027,221.4v-1.518a3.083,3.083,0,0,1-2.454-3.763,2.328,2.328,0,0,1,.335-.756l-.688-.353a1,1,0,0,1-.515-.657l-.013,0a2.316,2.316,0,0,0-2.072,1.763,3.077,3.077,0,0,0,2.454,3.763V221.4a11.987,11.987,0,0,0,11.993,11.993,12.118,12.118,0,0,0,1.474-.091,11.922,11.922,0,0,1-3.84-1.151Z" transform="translate(-25.795 -186.334)" fill="#e8bc9e"/>
  <path id="Path_591" data-name="Path 591" d="M255.45,30.637H282.2v5.077H255.45Z" transform="translate(-219.204 -29.75)" fill="#475673"/>
  <g id="Group_107" data-name="Group 107">
    <path id="Path_592" data-name="Path 592" d="M78.815,27.354H73.881V25.52a.886.886,0,0,0-.886-.886H46.247a.886.886,0,0,0-.886.886v1.834H38.949a3.843,3.843,0,0,0-3.839,3.839v6.384A13.114,13.114,0,0,0,14,47.979V51.95A3.168,3.168,0,0,0,11.965,54.2a3.967,3.967,0,0,0,2.428,4.645V59.7a12.888,12.888,0,0,0,6.674,11.282v3.893l-6.99,2.983-.048.022A7.372,7.372,0,0,0,10,83.823c0,.024,0,.049,0,.074v8.184a.886.886,0,0,0,.886.886H44.374a.886.886,0,0,0,.886-.886V84.034H78.815a3.844,3.844,0,0,0,3.839-3.84v-49A3.844,3.844,0,0,0,78.815,27.354Zm-31.683-.948H72.109v3.306H47.133ZM15.771,47.979a11.35,11.35,0,1,1,22.7,0v4.034c-2.2.237-8.9.6-14.28-2.973,3.7-.493,8.206-1.628,11.549-4.192a.886.886,0,1,0-1.078-1.406c-6.082,4.665-16.948,4.173-17.056,4.167a.887.887,0,0,0-.93.831l-.266,4.376-.578-.3a.113.113,0,0,1-.059-.077ZM16.165,59.7V58.178a.886.886,0,0,0-.733-.873,2.193,2.193,0,0,1-1.746-2.679,1.38,1.38,0,0,1,.789-.958,1.871,1.871,0,0,0,.546.426l1.447.743a1.134,1.134,0,0,0,1.648-.918c0-.006,0-.011,0-.017l.274-4.5c.724.007,1.843-.005,3.2-.1,7.237,6.156,17.478,4.437,17.916,4.36a.883.883,0,0,0,.262-.093,1.4,1.4,0,0,1,1.084,1.058,2.192,2.192,0,0,1-1.746,2.679.886.886,0,0,0-.733.873V59.7a11.106,11.106,0,1,1-22.213,0ZM35.11,69.907v5.356l-.918-.392V70.553Q34.666,70.25,35.11,69.907ZM32.42,71.5v3.181a12.611,12.611,0,0,1-9.581,0V71.789A12.876,12.876,0,0,0,32.42,71.5ZM43.488,91.2H11.772V83.934A5.591,5.591,0,0,1,14.8,79.473l7.378-3.149a14.376,14.376,0,0,0,10.906,0l7.378,3.149a5.59,5.59,0,0,1,3.026,4.461Zm37.4-11a2.069,2.069,0,0,1-2.067,2.067H44.947a7.376,7.376,0,0,0-3.716-4.386l-.048-.022-4.3-1.835v-7.76A12.826,12.826,0,0,0,40.15,59.7v-.847a3.967,3.967,0,0,0,2.428-4.644,3.175,3.175,0,0,0-2.336-2.348V47.979a13.07,13.07,0,0,0-3.36-8.76V31.193a2.069,2.069,0,0,1,2.067-2.067h6.411V30.6a.886.886,0,0,0,.886.886H72.995a.886.886,0,0,0,.886-.886V29.126h4.934a2.069,2.069,0,0,1,2.067,2.067Z" transform="translate(-10 -24.634)" fill="#284268"/>
    <path id="Path_593" data-name="Path 593" d="M404.082,221.686H397.6a.886.886,0,0,0,0,1.772h6.478a.886.886,0,1,0,0-1.772Z" transform="translate(-339.61 -192.587)" fill="#284268"/>
    <path id="Path_594" data-name="Path 594" d="M357.043,223.458h2.173a.886.886,0,1,0,0-1.772h-2.173a.886.886,0,1,0,0,1.772Z" transform="translate(-305.039 -192.587)" fill="#284268"/>
    <path id="Path_595" data-name="Path 595" d="M428.775,286.582h-2.2a.886.886,0,0,0,0,1.772h2.2a.886.886,0,0,0,0-1.772Z" transform="translate(-364.303 -247.899)" fill="#284268"/>
    <path id="Path_596" data-name="Path 596" d="M338.1,288.354a.886.886,0,0,0,0-1.772H326.364a.886.886,0,0,0,0,1.772Z" transform="translate(-278.891 -247.899)" fill="#284268"/>
    <path id="Path_597" data-name="Path 597" d="M300.754,286.582h-.792a.886.886,0,1,0,0,1.772h.792a.886.886,0,1,0,0-1.772Z" transform="translate(-256.387 -247.899)" fill="#284268"/>
    <path id="Path_598" data-name="Path 598" d="M240.1,286.582a.886.886,0,1,0,0,1.772h5.024a.886.886,0,0,0,0-1.772Z" transform="translate(-205.364 -247.899)" fill="#284268"/>
    <path id="Path_599" data-name="Path 599" d="M412.205,346.563h-5.07a.886.886,0,0,0,0,1.772h5.07a.886.886,0,1,0,0-1.772Z" transform="translate(-347.734 -299.023)" fill="#284268"/>
    <path id="Path_600" data-name="Path 600" d="M381.923,346.563h-.637a.886.886,0,0,0,0,1.772h.637a.886.886,0,0,0,0-1.772Z" transform="translate(-325.702 -299.023)" fill="#284268"/>
    <path id="Path_601" data-name="Path 601" d="M336.6,346.563h-4.816a.886.886,0,0,0,0,1.772H336.6a.886.886,0,1,0,0-1.772Z" transform="translate(-283.512 -299.023)" fill="#284268"/>
    <path id="Path_602" data-name="Path 602" d="M249.73,346.563H240.1a.886.886,0,0,0,0,1.772h9.632a.886.886,0,0,0,0-1.772Z" transform="translate(-205.364 -299.023)" fill="#284268"/>
    <path id="Path_603" data-name="Path 603" d="M438.17,170.6H437.6a.886.886,0,0,0,0,1.772h.572a.886.886,0,1,0,0-1.772Z" transform="translate(-373.698 -149.045)" fill="#284268"/>
    <path id="Path_604" data-name="Path 604" d="M369.225,172.372h6.28a.886.886,0,1,0,0-1.772h-6.28a.886.886,0,1,0,0,1.772Z" transform="translate(-315.422 -149.045)" fill="#284268"/>
    <path id="Path_605" data-name="Path 605" d="M404.933,120.6H398.6a.886.886,0,1,0,0,1.772h6.33a.886.886,0,1,0,0-1.772Z" transform="translate(-340.462 -106.428)" fill="#284268"/>
    <path id="Path_606" data-name="Path 606" d="M369.225,122.372h.522a.886.886,0,0,0,0-1.772h-.522a.886.886,0,1,0,0,1.772Z" transform="translate(-315.422 -106.428)" fill="#284268"/>
    <path id="Path_607" data-name="Path 607" d="M231.621,125.413a9.746,9.746,0,1,0-9.746-9.746A9.746,9.746,0,0,0,231.621,125.413Zm0-17.721a7.974,7.974,0,1,1-7.974,7.974A7.974,7.974,0,0,1,231.621,107.692Z" transform="translate(-190.587 -93.916)" fill="#284268"/>
    <path id="Path_608" data-name="Path 608" d="M254.192,151.99a.886.886,0,0,0,1.253,0l6.473-6.473a.886.886,0,1,0-1.253-1.253l-5.846,5.846-1.9-1.9a.886.886,0,1,0-1.253,1.253Z" transform="translate(-215.757 -126.377)" fill="#284268"/>
  </g>
</svg>
