<svg id="choose" xmlns="http://www.w3.org/2000/svg" width="99.479" height="98" viewBox="0 0 99.479 98">
  <g id="Group_73" data-name="Group 73" transform="translate(0 31.87)">
    <g id="Group_72" data-name="Group 72">
      <g id="Group_70" data-name="Group 70">
        <path id="Path_548" data-name="Path 548" d="M21.854,193.33H3.642A3.642,3.642,0,0,1,0,189.688V171.476a3.642,3.642,0,0,1,3.642-3.642H21.854a3.642,3.642,0,0,1,3.642,3.642v18.211a3.642,3.642,0,0,1-3.642,3.642Z" transform="translate(0 -167.834)" fill="#ffe07d"/>
      </g>
      <g id="Group_71" data-name="Group 71" transform="translate(0 0.008)">
        <path id="Path_549" data-name="Path 549" d="M22.161,167.874q.058.759.058,1.533A19.943,19.943,0,0,1,0,189.218v.494a3.642,3.642,0,0,0,3.642,3.642H21.855a3.642,3.642,0,0,0,3.642-3.642V171.5A3.641,3.641,0,0,0,22.161,167.874Z" transform="translate(-0.001 -167.874)" fill="#ffd064"/>
      </g>
    </g>
  </g>
  <path id="Path_550" data-name="Path 550" d="M46.8,199.924a4.41,4.41,0,0,0-3.645-6.9h-3.7a1.479,1.479,0,0,0-1.479,1.479v12.748a1.479,1.479,0,0,0,1.479,1.479h.007s3.4-.015,4.343-.015a4.907,4.907,0,0,0,3-8.795Zm-3.645-3.938a1.454,1.454,0,0,1,0,2.909l-2.224,0v-2.912Zm.647,9.775c-.527,0-1.827,0-2.871.009v-3.911l2.871,0a1.952,1.952,0,1,1,0,3.9Z" transform="translate(-30.598 -156.263)" fill="#ecf4ff"/>
  <g id="Group_75" data-name="Group 75">
    <g id="Group_74" data-name="Group 74" transform="translate(0 0)">
      <path id="Path_551" data-name="Path 551" d="M21.854,29.3H3.642A3.642,3.642,0,0,1,0,25.66V7.448A3.642,3.642,0,0,1,3.642,3.806H21.854A3.642,3.642,0,0,1,25.5,7.448V25.66A3.642,3.642,0,0,1,21.854,29.3Z" transform="translate(0 -3.806)" fill="#df75a5"/>
      <path id="Path_552" data-name="Path 552" d="M22.161,3.806q.058.759.058,1.533A19.941,19.941,0,0,1,2.277,25.28,20.1,20.1,0,0,1,0,25.15v.494a3.642,3.642,0,0,0,3.642,3.642H21.855A3.642,3.642,0,0,0,25.5,25.644V7.433A3.641,3.641,0,0,0,22.161,3.806Z" transform="translate(-0.001 -3.806)" fill="#dd5790"/>
    </g>
  </g>
  <g id="Group_80" data-name="Group 80" transform="translate(55.374)">
    <g id="Group_77" data-name="Group 77" transform="translate(0 0)">
      <g id="Group_76" data-name="Group 76">
        <path id="Path_553" data-name="Path 553" d="M306.854,29.3H288.642A3.642,3.642,0,0,1,285,25.66V7.448a3.642,3.642,0,0,1,3.642-3.642h18.211A3.642,3.642,0,0,1,310.5,7.448V25.66A3.642,3.642,0,0,1,306.854,29.3Z" transform="translate(-285 -3.806)" fill="#b3e59f"/>
        <path id="Path_554" data-name="Path 554" d="M307.161,3.885q.058.759.058,1.533a19.941,19.941,0,0,1-19.941,19.941,20.1,20.1,0,0,1-2.276-.13v.494a3.642,3.642,0,0,0,3.642,3.642h18.211a3.642,3.642,0,0,0,3.642-3.642V7.512a3.641,3.641,0,0,0-3.336-3.627Z" transform="translate(-285.001 -3.87)" fill="#95d6a4"/>
      </g>
    </g>
    <g id="Group_79" data-name="Group 79" transform="translate(0 31.87)">
      <g id="Group_78" data-name="Group 78">
        <path id="Path_555" data-name="Path 555" d="M306.854,193.331H288.642A3.642,3.642,0,0,1,285,189.689V171.477a3.642,3.642,0,0,1,3.642-3.642h18.211a3.642,3.642,0,0,1,3.642,3.642v18.211A3.642,3.642,0,0,1,306.854,193.331Z" transform="translate(-285 -167.835)" fill="#90d8f9"/>
        <path id="Path_556" data-name="Path 556" d="M307.161,167.914q.058.759.058,1.533a19.941,19.941,0,0,1-19.941,19.941,20.146,20.146,0,0,1-2.276-.13v.494a3.642,3.642,0,0,0,3.642,3.642h18.211a3.642,3.642,0,0,0,3.642-3.642V171.541A3.641,3.641,0,0,0,307.161,167.914Z" transform="translate(-285.001 -167.899)" fill="#75cef9"/>
      </g>
    </g>
  </g>
  <path id="Path_557" data-name="Path 557" d="M45.025,42.7,40.281,30.136l-.016-.04A1.762,1.762,0,0,0,38.631,29h0a1.761,1.761,0,0,0-1.634,1.1l-.013.033L32.195,42.7a1.479,1.479,0,1,0,2.764,1.053l.829-2.178h5.65l.82,2.173A1.479,1.479,0,1,0,45.025,42.7Zm-8.11-4.087,1.711-4.493,1.7,4.493Z" transform="translate(-25.861 -24.105)" fill="#ecf4ff"/>
  <g id="Group_81" data-name="Group 81" transform="translate(30.391 4.895)">
    <path id="Path_558" data-name="Path 558" d="M168.653,31.958H157.9a1.479,1.479,0,0,1,0-2.958h10.756a1.479,1.479,0,0,1,0,2.958Z" transform="translate(-156.418 -29)" fill="#4a80aa"/>
    <path id="Path_559" data-name="Path 559" d="M164.669,64.765H157.9a1.479,1.479,0,1,1,0-2.958h6.772a1.479,1.479,0,0,1,0,2.958Z" transform="translate(-156.418 -55.433)" fill="#4a80aa"/>
    <path id="Path_560" data-name="Path 560" d="M164.669,97.57H157.9a1.479,1.479,0,1,1,0-2.958h6.772a1.479,1.479,0,0,1,0,2.958Z" transform="translate(-156.418 -81.864)" fill="#4a80aa"/>
    <path id="Path_561" data-name="Path 561" d="M168.653,195.988H157.9a1.479,1.479,0,0,1,0-2.958h10.756a1.479,1.479,0,0,1,0,2.958Z" transform="translate(-156.418 -161.16)" fill="#4a80aa"/>
    <path id="Path_562" data-name="Path 562" d="M164.669,228.793H157.9a1.479,1.479,0,1,1,0-2.958h6.772a1.479,1.479,0,0,1,0,2.958Z" transform="translate(-156.418 -187.591)" fill="#4a80aa"/>
    <path id="Path_563" data-name="Path 563" d="M164.669,261.6H157.9a1.479,1.479,0,0,1,0-2.958h6.772a1.479,1.479,0,0,1,0,2.958Z" transform="translate(-156.418 -214.022)" fill="#4a80aa"/>
  </g>
  <g id="Group_83" data-name="Group 83" transform="translate(61.448 4.895)">
    <g id="Group_82" data-name="Group 82">
      <path id="Path_564" data-name="Path 564" d="M324.117,44.706a7.853,7.853,0,1,1,4.392-14.364,1.479,1.479,0,1,1-1.656,2.451,4.9,4.9,0,1,0-2.736,8.955A3.54,3.54,0,0,0,327,40.478a1.479,1.479,0,0,1,2.267,1.9,6.49,6.49,0,0,1-5.149,2.328Z" transform="translate(-316.264 -29)" fill="#ecf4ff"/>
    </g>
  </g>
  <g id="Group_85" data-name="Group 85" transform="translate(62.264 36.765)">
    <g id="Group_84" data-name="Group 84">
      <path id="Path_565" data-name="Path 565" d="M321.965,208.735a1.479,1.479,0,0,1-1.479-1.474s-.017-4.621-.017-6.393c0-1.454-.009-6.357-.009-6.357a1.479,1.479,0,0,1,1.479-1.482h3.611c3.964,0,6.627,3.156,6.627,7.853,0,4.468-2.732,7.759-6.5,7.825-1.028.018-3.6.028-3.71.028Zm1.456-12.748c0,1.568.007,3.943.007,4.881,0,1.123.007,3.394.011,4.9.786,0,1.69-.012,2.191-.02,2.479-.043,3.589-2.476,3.589-4.867,0-2.367-.964-4.9-3.669-4.9Z" transform="translate(-320.46 -193.029)" fill="#ecf4ff"/>
    </g>
  </g>
  <path id="Path_566" data-name="Path 566" d="M453.651,31.958H442.9a1.479,1.479,0,1,1,0-2.958h10.756a1.479,1.479,0,1,1,0,2.958Z" transform="translate(-355.651 -24.105)" fill="#4a80aa"/>
  <path id="Path_567" data-name="Path 567" d="M449.668,64.765H442.9a1.479,1.479,0,1,1,0-2.958h6.772a1.479,1.479,0,0,1,0,2.958Z" transform="translate(-355.652 -50.538)" fill="#4a80aa"/>
  <path id="Path_568" data-name="Path 568" d="M449.668,97.57H442.9a1.479,1.479,0,1,1,0-2.958h6.772a1.479,1.479,0,0,1,0,2.958Z" transform="translate(-355.652 -76.969)" fill="#4a80aa"/>
  <path id="Path_569" data-name="Path 569" d="M453.651,195.988H442.9a1.479,1.479,0,1,1,0-2.958h10.756a1.479,1.479,0,1,1,0,2.958Z" transform="translate(-355.651 -156.265)" fill="#4a80aa"/>
  <path id="Path_570" data-name="Path 570" d="M449.668,228.793H442.9a1.479,1.479,0,1,1,0-2.958h6.772a1.479,1.479,0,0,1,0,2.958Z" transform="translate(-355.652 -182.696)" fill="#4a80aa"/>
  <path id="Path_571" data-name="Path 571" d="M449.668,261.6H442.9a1.479,1.479,0,1,1,0-2.958h6.772a1.479,1.479,0,0,1,0,2.958Z" transform="translate(-355.652 -209.127)" fill="#4a80aa"/>
  <g id="Group_86" data-name="Group 86" transform="translate(8.305 45.215)">
    <path id="Path_572" data-name="Path 572" d="M50.929,287.459l2.028,1.472a1.972,1.972,0,0,0,1.158.376H87.839a1.183,1.183,0,0,0,1.13-1.532l-1.607-5.2a1.969,1.969,0,0,1-.085-.474L86.9,275.12a7.965,7.965,0,0,0-.343-1.917l-6.208-20.1a4.046,4.046,0,0,0-4.871-2.762,3.984,3.984,0,0,0-2.77,5.023L71.5,251.462a4.046,4.046,0,0,0-4.871-2.762,3.984,3.984,0,0,0-2.77,5.023l-1.148-3.715a4.046,4.046,0,0,0-4.871-2.762,3.984,3.984,0,0,0-2.77,5.022l-3.97-12.85a4.046,4.046,0,0,0-4.871-2.762,3.984,3.984,0,0,0-2.77,5.023l7.055,22.837a3.984,3.984,0,0,0-5.12-2.585,4.046,4.046,0,0,0-2.464,5.028L48,283.362a7.966,7.966,0,0,0,2.934,4.1Z" transform="translate(-42.743 -236.522)" fill="#ffddce"/>
    <path id="Path_573" data-name="Path 573" d="M160.35,387.859h22.245a1.183,1.183,0,0,0,1.13-1.532l-1.607-5.2a1.97,1.97,0,0,1-.085-.474l-.382-6.979a7.96,7.96,0,0,0-.343-1.916l-3.99-12.915C175.777,367.466,171.6,379.764,160.35,387.859Z" transform="translate(-137.5 -335.074)" fill="#ffcbbe"/>
  </g>
  <g id="Group_87" data-name="Group 87" transform="translate(12.107 45.219)">
    <path id="Path_574" data-name="Path 574" d="M65.206,236.543l8.643,27.977a1.479,1.479,0,0,0,2.826-.873L69.19,239.418a4.08,4.08,0,0,0-3.984-2.875Z" transform="translate(-64.643 -236.541)" fill="#ffcbbe"/>
    <path id="Path_575" data-name="Path 575" d="M124.963,291.044l4.645,15.035a1.479,1.479,0,0,0,2.826-.873l-3.487-11.288a4.08,4.08,0,0,0-3.984-2.875Z" transform="translate(-112.79 -280.453)" fill="#ffcbbe"/>
    <path id="Path_576" data-name="Path 576" d="M170.2,298.53l3.469,11.229a1.479,1.479,0,0,0,2.826-.873l-2.312-7.482A4.08,4.08,0,0,0,170.2,298.53Z" transform="translate(-149.234 -286.484)" fill="#ffcbbe"/>
    <path id="Path_577" data-name="Path 577" d="M215.766,307l2.281,7.383a1.478,1.478,0,0,0,2.855-.761l-1.153-3.732A4.081,4.081,0,0,0,215.766,307Z" transform="translate(-185.95 -293.305)" fill="#ffcbbe"/>
    <path id="Path_578" data-name="Path 578" d="M66.237,368.868a3.98,3.98,0,0,0-3.927-2.692l3.818,12.358-.9,1.7a1.479,1.479,0,1,0,2.615,1.381l1.184-2.242a1.479,1.479,0,0,0,.105-1.127Z" transform="translate(-62.31 -340.986)" fill="#ffcbbe"/>
  </g>
</svg>
