<svg id="layer1" xmlns="http://www.w3.org/2000/svg" width="71.711" height="94.356" viewBox="0 0 71.711 94.356">
  <g id="g7300">
    <path id="path5384" d="M77.711,1042.231v69.823a5.649,5.649,0,0,1-5.661,5.661H11.661A5.649,5.649,0,0,1,6,1112.054v-83.033a5.649,5.649,0,0,1,5.661-5.661H58.839" transform="translate(-6 -1023.36)" fill="#7349bd"/>
    <path id="path5386" d="M20,1023.36v13.21a5.649,5.649,0,0,0,5.661,5.661h13.21Z" transform="translate(32.839 -1023.36)" fill="#b7a2dd"/>
    <path id="path5388" d="M11.4,1033.86a1.887,1.887,0,1,0,1.887,1.887,1.887,1.887,0,0,0-1.887-1.887Zm7.548,0a1.887,1.887,0,1,0,0,3.774H52.882a1.887,1.887,0,1,0,0-3.774H18.944Z" transform="translate(3.731 -994.23)" fill="#f9f9f9" fill-rule="evenodd"/>
    <path id="path5390" d="M11.4,1035.86a1.887,1.887,0,1,0,1.887,1.887,1.887,1.887,0,0,0-1.887-1.887Zm7.548,0a1.887,1.887,0,1,0,0,3.774H52.882a1.887,1.887,0,1,0,0-3.774H18.944Z" transform="translate(3.731 -988.682)" fill="#f9f9f9" fill-rule="evenodd"/>
    <path id="path5392" d="M11.4,1037.86a1.887,1.887,0,1,0,1.887,1.887,1.887,1.887,0,0,0-1.887-1.887Zm7.548,0a1.887,1.887,0,1,0,0,3.774H52.882a1.887,1.887,0,1,0,0-3.774H18.944Z" transform="translate(3.731 -983.133)" fill="#f9f9f9" fill-rule="evenodd"/>
  </g>
</svg>
