<svg id="_x34_98_x2C__student__x2C__notes__x2C__note_x2C__education" xmlns="http://www.w3.org/2000/svg" width="99" height="99.994" viewBox="0 0 99 99.994">
  <g id="Group_69" data-name="Group 69">
    <path id="Path_521" data-name="Path 521" d="M147.087,93.31v83.935H61V93.31h7.214l-.019.013h76.454q.21,0,.42-.013Z" transform="translate(-53.467 -78.327)" fill="#f0f1f1"/>
    <path id="Path_522" data-name="Path 522" d="M63.253,136.676V95.785h7.214l-.019.013H146.9c.062,0,.123,0,.185-.006V93.31h-2.019q-.21.013-.42.013H68.195l.019-.013H61v83.935h2.253Z" transform="translate(-53.467 -78.327)" fill="#dee0e0"/>
    <rect id="Rectangle_141" data-name="Rectangle 141" width="8.609" height="6.457" transform="translate(72.098 81.7)" fill="#ff7979"/>
    <path id="Path_523" data-name="Path 523" d="M362.453,404.9h7.156V403.31H361v6.457h1.453Z" transform="translate(-288.902 -321.61)" fill="#d65b5b"/>
    <rect id="Rectangle_142" data-name="Rectangle 142" width="8.609" height="34.435" transform="translate(72.098 47.265)" fill="#febe76"/>
    <path id="Path_524" data-name="Path 524" d="M362.533,245.086h7.075V243.31H361v34.435h1.533Z" transform="translate(-288.902 -196.045)" fill="#e8a664"/>
    <path id="Path_525" data-name="Path 525" d="M365.3,183.31l4.3,12.913H361Z" transform="translate(-288.902 -148.958)" fill="#57606f"/>
    <path id="Path_526" data-name="Path 526" d="M366.156,185.866l-.852-2.556L361,196.223h1.7Z" transform="translate(-288.902 -148.958)" fill="#414a56"/>
    <path id="Path_527" data-name="Path 527" d="M175.739,32.258a6.884,6.884,0,0,1,1.958,4.834,6.75,6.75,0,0,1-6.323,6.73H94.52a8,8,0,0,0,3.749-6.829A8.138,8.138,0,0,0,94.7,30.25h76.256A6.661,6.661,0,0,1,175.739,32.258Z" transform="translate(-79.773 -28.839)" fill="#ffebbe"/>
    <g id="Group_68" data-name="Group 68" transform="translate(14.747 1.411)">
      <g id="Group_67" data-name="Group 67">
        <g id="Group_65" data-name="Group 65" transform="translate(0.179)">
          <path id="Path_528" data-name="Path 528" d="M97.55,32.473H172.3a6.661,6.661,0,0,1,4.784,2.008,6.844,6.844,0,0,1,1.2,1.663,6.864,6.864,0,0,0-1.893-3.887,6.661,6.661,0,0,0-4.784-2.008H95.35A8.207,8.207,0,0,1,97.55,32.473Z" transform="translate(-95.35 -30.249)" fill="#e5d0a8"/>
        </g>
        <g id="Group_66" data-name="Group 66" transform="translate(0 5.436)">
          <path id="Path_529" data-name="Path 529" d="M98.966,59.037a8.118,8.118,0,0,0-.805-3.532,8.223,8.223,0,0,1,.108,1.308,8,8,0,0,1-3.749,6.829h3.023A8.129,8.129,0,0,0,98.966,59.037Z" transform="translate(-94.52 -55.505)" fill="#e5d0a8"/>
        </g>
      </g>
    </g>
    <path id="Path_530" data-name="Path 530" d="M44.849,29.027a8.138,8.138,0,0,1,3.57,6.743A8,8,0,0,1,44.671,42.6H37.457V83.49H31v-45.2c0-5.652,4.33-10.061,9.982-9.564Z" transform="translate(-29.924 -27.616)" fill="#f0dca0"/>
    <path id="Path_531" data-name="Path 531" d="M32.722,39.873c0-5.652,4.33-10.061,9.982-9.564l3.867.3,0,0a8.219,8.219,0,0,0-1.724-1.58l-3.867-.3C35.33,28.233,31,32.643,31,38.295v45.2h1.722Z" transform="translate(-29.924 -27.616)" fill="#ddc792"/>
    <rect id="Rectangle_143" data-name="Rectangle 143" width="4.304" height="4.304" transform="translate(61.337 23.591)"/>
    <rect id="Rectangle_144" data-name="Rectangle 144" width="4.304" height="4.304" transform="translate(52.728 23.591)"/>
    <rect id="Rectangle_145" data-name="Rectangle 145" width="4.304" height="4.304" transform="translate(44.12 23.591)"/>
    <rect id="Rectangle_146" data-name="Rectangle 146" width="4.304" height="4.304" transform="translate(35.511 23.591)"/>
    <path id="Path_532" data-name="Path 532" d="M143.163,174.4H57.076A1.076,1.076,0,0,1,56,173.321V89.386a1.076,1.076,0,0,1,1.076-1.076h86.087a1.076,1.076,0,0,1,1.076,1.076v83.935A1.076,1.076,0,0,1,143.163,174.4Zm-85.011-2.152h83.935V90.462H58.152Z" transform="translate(-49.543 -74.403)"/>
    <path id="Path_533" data-name="Path 533" d="M166.96,40.987H90.506a1.076,1.076,0,1,1,0-2.152H166.96q.177,0,.354-.011a5.67,5.67,0,0,0,5.313-5.656,5.8,5.8,0,0,0-1.651-4.081A5.576,5.576,0,0,0,166.96,27.4H90.7a1.076,1.076,0,1,1,0-2.152H166.96a7.712,7.712,0,0,1,5.553,2.331,7.934,7.934,0,0,1,2.266,5.587,7.825,7.825,0,0,1-7.334,7.8C167.284,40.982,167.121,40.987,166.96,40.987Z" transform="translate(-75.779 -24.915)"/>
    <path id="Path_534" data-name="Path 534" d="M33.533,80.643H27.076A1.076,1.076,0,0,1,26,79.567v-45.2a10.926,10.926,0,0,1,3.429-8.078,9.989,9.989,0,0,1,7.723-2.558l3.856.3a1.075,1.075,0,0,1,.524.184,9.232,9.232,0,0,1,4.04,7.632,1.076,1.076,0,1,1-2.152,0,7.08,7.08,0,0,0-2.874-5.693l-3.57-.274a7.869,7.869,0,0,0-6.093,2,8.772,8.772,0,0,0-2.73,6.491v44.12h5.38a1.076,1.076,0,1,1,0,2.152Z" transform="translate(-26 -23.693)"/>
    <path id="Path_535" data-name="Path 535" d="M90.541,65.563A1.073,1.073,0,0,1,89.93,63.6l.057-.037a6.942,6.942,0,0,0,3.235-5.911,1.076,1.076,0,0,1,2.152,0A9.107,9.107,0,0,1,91.116,65.4,1.087,1.087,0,0,1,90.541,65.563Z" transform="translate(-75.802 -49.502)"/>
    <path id="Path_536" data-name="Path 536" d="M144.424,190.462H97.076a1.076,1.076,0,0,1,0-2.152h47.348a1.076,1.076,0,1,1,0,2.152Z" transform="translate(-80.935 -152.882)"/>
    <path id="Path_537" data-name="Path 537" d="M144.424,230.462H97.076a1.076,1.076,0,0,1,0-2.152h47.348a1.076,1.076,0,1,1,0,2.152Z" transform="translate(-80.935 -184.273)"/>
    <path id="Path_538" data-name="Path 538" d="M144.424,270.462H97.076a1.076,1.076,0,1,1,0-2.152h47.348a1.076,1.076,0,1,1,0,2.152Z" transform="translate(-80.935 -215.664)"/>
    <path id="Path_539" data-name="Path 539" d="M144.424,310.462H97.076a1.076,1.076,0,0,1,0-2.152h47.348a1.076,1.076,0,1,1,0,2.152Z" transform="translate(-80.935 -247.056)"/>
    <path id="Path_540" data-name="Path 540" d="M144.424,350.462H97.076a1.076,1.076,0,1,1,0-2.152h47.348a1.076,1.076,0,1,1,0,2.152Z" transform="translate(-80.935 -278.447)"/>
    <path id="Path_541" data-name="Path 541" d="M144.424,390.462H97.076a1.076,1.076,0,0,1,0-2.152h47.348a1.076,1.076,0,0,1,0,2.152Z" transform="translate(-80.935 -309.838)"/>
    <path id="Path_542" data-name="Path 542" d="M265.924,430.462H251.9a1.076,1.076,0,0,1,0-2.152h14.028a1.076,1.076,0,0,1,0,2.152Z" transform="translate(-202.435 -341.229)"/>
    <path id="Path_543" data-name="Path 543" d="M397.076,274.9A1.076,1.076,0,0,1,396,273.821V239.386a1.076,1.076,0,1,1,2.152,0v34.435A1.076,1.076,0,0,1,397.076,274.9Z" transform="translate(-316.37 -192.121)"/>
    <path id="Path_544" data-name="Path 544" d="M357.076,274.9A1.076,1.076,0,0,1,356,273.821V239.386a1.076,1.076,0,1,1,2.152,0v34.435A1.076,1.076,0,0,1,357.076,274.9Z" transform="translate(-284.978 -192.121)"/>
    <path id="Path_545" data-name="Path 545" d="M365.685,406.919h-8.609A1.076,1.076,0,0,1,356,405.843v-6.457a1.076,1.076,0,0,1,1.076-1.076h8.609a1.076,1.076,0,0,1,1.076,1.076v6.457A1.076,1.076,0,0,1,365.685,406.919Zm-7.533-2.152h6.457v-4.3h-6.457Z" transform="translate(-284.978 -317.686)"/>
    <path id="Path_546" data-name="Path 546" d="M365.684,193.375h-8.609a1.076,1.076,0,0,1-1.021-1.416l4.3-12.913a1.076,1.076,0,0,1,2.042,0l4.3,12.913a1.076,1.076,0,0,1-1.021,1.416Zm-7.115-2.152h5.623l-2.811-8.434Z" transform="translate(-284.978 -145.034)"/>
    <path id="Path_547" data-name="Path 547" d="M403.533,345.527h-6.457a1.076,1.076,0,1,1,0-2.152h5.38V329.386a1.076,1.076,0,0,1,2.152,0v15.065A1.076,1.076,0,0,1,403.533,345.527Z" transform="translate(-316.37 -262.751)"/>
  </g>
</svg>
