<svg id="Component_6_2" data-name="Component 6 – 2" xmlns="http://www.w3.org/2000/svg" width="51.328" height="70.182" viewBox="0 0 51.328 70.182">
  <path id="Path_622" data-name="Path 622" d="M117.584,71.673h40.54V117.28l-8.38,8.379h-32.16Z" transform="translate(-117.584 -65.62)" fill="#f2f0f5"/>
  <path id="Path_623" data-name="Path 623" d="M337.2,383.1h8.379l-8.379,8.379Z" transform="translate(-305.034 -331.445)" fill="#fbb429"/>
  <path id="Path_624" data-name="Path 624" d="M151.847,181.623H181.4v.438H151.847Zm0,25.269h13.521v.438H151.847Zm0-2.34H181.4v.438H151.847Zm0-2.866H181.4v.438H151.847Zm0-2.866H181.4v.438H151.847Zm0-2.866H181.4v.438H151.847Zm0-2.866H181.4v.438H151.847Zm0-2.866H181.4v.438H151.847Zm0-2.866H181.4v.438H151.847Zm0-2.866H181.4v.438H151.847Z" transform="translate(-146.829 -159.469)" fill="#c8cacc"/>
  <g id="Group_111" data-name="Group 111" transform="translate(4.921 1.968)">
    <path id="Path_625" data-name="Path 625" d="M157.719,105.7a.6.6,0,0,1-.263-.056.583.583,0,0,1-.19-.151.67.67,0,0,1-.115-.214.831.831,0,0,1-.039-.241,1.072,1.072,0,0,1,.059-.3q.055-.19.146-.424c.058-.158.124-.321.195-.492l.207-.492c.068-.158.124-.3.171-.436s.083-.239.1-.314.041-.188.071-.307.061-.248.095-.39.073-.287.107-.441.073-.312.112-.468c-.068.015-.149.027-.246.039s-.2.022-.312.032c-.156.015-.312.037-.463.063s-.309.061-.468.1-.324.073-.5.115-.353.083-.548.124c-.285.063-.572.131-.857.207a3.476,3.476,0,0,1-.891.114.5.5,0,0,1-.266-.075.946.946,0,0,0-.27-.11,5.492,5.492,0,0,0-.27.487c-.085.175-.165.353-.236.536s-.136.365-.192.543-.107.346-.149.5a2.087,2.087,0,0,0-.061.334c-.017.134-.034.273-.046.414s-.029.273-.044.4-.029.231-.044.307a.572.572,0,0,1-.085.209.837.837,0,0,1-.156.19.767.767,0,0,1-.207.139.523.523,0,0,1-.229.054.452.452,0,0,1-.324-.117.841.841,0,0,1-.2-.292,1.444,1.444,0,0,1-.1-.383,2.675,2.675,0,0,1-.027-.378,3.947,3.947,0,0,1,.107-.9,6.965,6.965,0,0,1,.287-.948,10.521,10.521,0,0,1,.429-.972c.163-.326.341-.65.531-.974.158-.29.353-.626.584-1.006s.494-.772.782-1.174.6-.8.935-1.181a9.418,9.418,0,0,1,1.045-1.03A5.534,5.534,0,0,1,157,95.612a2.557,2.557,0,0,1,1.135-.28,2.086,2.086,0,0,1,.989.215,1.7,1.7,0,0,1,.631.58,2.346,2.346,0,0,1,.331.848,5.169,5.169,0,0,1,.1,1.028,8.038,8.038,0,0,1-.061.984c-.041.339-.09.67-.151.994s-.122.633-.193.933-.132.572-.187.813l-.251.972c-.01.03-.027.085-.053.171s-.058.19-.1.312-.085.251-.134.392-.1.278-.151.414-.1.261-.144.373-.083.207-.117.28l.007-.007c-.034.124-.068.248-.107.378a1.354,1.354,0,0,1-.156.346.849.849,0,0,1-.258.251.783.783,0,0,1-.407.095Zm.365-8.935h0a1.665,1.665,0,0,0-.641.132,3.372,3.372,0,0,0-.624.348,4.282,4.282,0,0,0-.6.5q-.289.285-.548.585c-.173.2-.336.4-.49.6s-.29.39-.414.56l-.075.112c-.029.044-.061.1-.093.149s-.061.112-.088.173-.053.112-.073.161h.736a8.179,8.179,0,0,0,.914-.058c.343-.039.682-.083,1.018-.137s.643-.1.923-.158l.636-.127a1.848,1.848,0,0,0,.054-.248c.017-.1.032-.222.046-.351s.024-.266.032-.409.01-.295.01-.446c0-.124,0-.266-.012-.426a1.72,1.72,0,0,0-.088-.453.9.9,0,0,0-.217-.36.551.551,0,0,0-.409-.146ZM165.222,101h0a15.586,15.586,0,0,0-.407,2.54.379.379,0,0,1-.253.329,1.129,1.129,0,0,1-.512.129.719.719,0,0,1-.463-.144.437.437,0,0,1-.178-.356,11.853,11.853,0,0,1,.407-2.455q-1.008.022-1.742.1c-.285.029-.48.044-.58.044-.27,0-.4-.239-.4-.714,0-.185.131-.334.395-.443a11.71,11.71,0,0,1,2.658-.2,19.679,19.679,0,0,1,.906-2.709.636.636,0,0,1,.565-.287q.584,0,.585.278a1.51,1.51,0,0,1-.107.455q-.106.307-.607,2.219,1.348-.04,2.219-.042a.492.492,0,0,1,.558.555c0,.438-.273.658-.821.658q-.928,0-2.219.042Z" transform="translate(-151.184 -87.782)" fill="#20d0c2"/>
    <path id="Path_626" data-name="Path 626" d="M318.928,66.259l2.6,2.049,17.695-22.482-2.6-2.049L318.928,66.259Z" transform="translate(-294.363 -43.777)" fill="#20d0c2"/>
  </g>
  <path id="Path_627" data-name="Path 627" d="M391.023,107.268l.511-.65-2.6-2.054-.512.65,2.6,2.054Z" transform="translate(-348.76 -93.695)" fill="#15bdb1"/>
  <path id="Path_628" data-name="Path 628" d="M309.413,201.7l3.168-2.354-2.6-2.049-1.536,3.639Z" transform="translate(-280.492 -172.849)" fill="#ff5b61"/>
  <path id="Path_629" data-name="Path 629" d="M313.981,211.054l3.166-2.351-.564-.444-2.792,2.651.19.145Z" transform="translate(-285.058 -182.203)" fill="#ec4b53"/>
  <path id="Path_630" data-name="Path 630" d="M398.939,30.535l1.535,1.208a1.027,1.027,0,0,1,.109,1.441l-8.226,10.452-3.07-2.416,8.226-10.452a1.027,1.027,0,0,1,1.426-.233Z" transform="translate(-349.498 -30.341)" fill="#ff5b61"/>
  <path id="Path_631" data-name="Path 631" d="M416.594,40.807l-1.068,1.357L412.9,45.5l-4.531,5.757.043.034.233.183,4.4-5.6,3.822-4.856a1.028,1.028,0,0,0-.108-1.441l-.073-.057a1.114,1.114,0,0,1-.094,1.282Z" transform="translate(-365.785 -38.18)" fill="#ec4b53"/>
  <path id="Path_632" data-name="Path 632" d="M299.865,224.629l.109.086,2.119-1.8-.971-.764Z" transform="translate(-273.171 -194.061)" fill="#666"/>
  <path id="Path_634" data-name="Path 634" d="M335.236,134.789l.216.17,10.174-12.927-.216-.17Z" transform="translate(-303.362 -108.459)" fill="#15bdb1"/>
  <path id="Path_635" data-name="Path 635" d="M162.781,434.379h4.249v11.014l-2.124-1.666-2.125,1.666Z" transform="translate(-156.162 -375.21)" fill="#20d0c2"/>
  <path id="Path_636" data-name="Path 636" d="M145.05,370.32l.1.034a.966.966,0,1,1,1.641,1.015l.074.07a.966.966,0,1,1,1.089,1.593c.013.031.026.063.039.095a.966.966,0,1,1,.344,1.9l0,.1a.966.966,0,1,1-.455,1.874l-.044.093a.966.966,0,1,1-1.18,1.526l-.078.066a.966.966,0,1,1-1.7.916l-.1.029a.966.966,0,1,1-1.923.145l-.1-.014a.966.966,0,1,1-1.816-.65l-.087-.054a.966.966,0,1,1-1.395-1.333l-.058-.084a.966.966,0,1,1-.733-1.784c-.006-.033-.012-.067-.018-.1a.966.966,0,0,1-.422-1.848.955.955,0,0,1,.478-.08l.024-.1a.966.966,0,1,1,.837-1.738l.063-.081a.966.966,0,1,1,1.47-1.249l.09-.048a.966.966,0,1,1,1.852-.541l.1-.008a.966.966,0,1,1,1.912.256Z" transform="translate(-134.711 -319.55)" fill="#ff5b61"/>
  <path id="Path_637" data-name="Path 637" d="M151.169,387.2a4.436,4.436,0,1,0-4.436-4.436A4.445,4.445,0,0,0,151.169,387.2Z" transform="translate(-142.464 -327.369)" fill="#fff"/>
  <path id="Path_638" data-name="Path 638" d="M154.03,389.573a3.945,3.945,0,1,0-3.945-3.946A3.953,3.953,0,0,0,154.03,389.573Z" transform="translate(-145.325 -330.23)" fill="#fbb429"/>
  <path id="Path_639" data-name="Path 639" d="M160.715,388.454l.658,2.15,2.141,0-1.735,1.324.666,2.147-1.73-1.331-1.73,1.331.665-2.147-1.734-1.324,2.141,0,.658-2.15Z" transform="translate(-152.01 -336.011)" fill="#fff"/>
</svg>
