<svg id="Layer_7" data-name="Layer 7" xmlns="http://www.w3.org/2000/svg" width="65.339" height="65.333" viewBox="0 0 65.339 65.333">
  <path id="Path_609" data-name="Path 609" d="M10,11.108h2.108v8.43h2.108v-8.43h2.108V9H10Z" transform="translate(-0.516 -0.57)" fill="#e29152"/>
  <path id="Path_610" data-name="Path 610" d="M34,11.108h2.108v8.43h2.108v-8.43h2.108V9H34Z" transform="translate(0.774 -0.57)" fill="#e29152"/>
  <path id="Path_611" data-name="Path 611" d="M18,10.054v8.43a1.054,1.054,0,0,0,1.054,1.054h5.269V17.43H20.108V15.323h4.215V13.215H20.108V11.108h4.215V9H19.054A1.054,1.054,0,0,0,18,10.054Z" transform="translate(-0.086 -0.57)" fill="#e29152"/>
  <path id="Path_612" data-name="Path 612" d="M26,12.161a3.161,3.161,0,0,0,3.161,3.161,1.054,1.054,0,1,1,0,2.108H26v2.108h3.161a3.161,3.161,0,1,0,0-6.323,1.054,1.054,0,1,1,0-2.108h3.161V9H29.161A3.161,3.161,0,0,0,26,12.161Z" transform="translate(0.344 -0.57)" fill="#e29152"/>
  <path id="Path_613" data-name="Path 613" d="M7.054,23.968H44.989a1.054,1.054,0,0,0,1.054-1.054V6.054A1.054,1.054,0,0,0,44.989,5H7.054A1.054,1.054,0,0,0,6,6.054v16.86A1.054,1.054,0,0,0,7.054,23.968ZM8.108,7.108H43.936V21.86H8.108Z" transform="translate(-0.731 -0.785)" fill="#e29152"/>
  <path id="Path_614" data-name="Path 614" d="M6.054,35.576h6.323a1.054,1.054,0,0,0,1.054-1.054V28.632l2.856-2.845-1.5-1.5-2.845,2.856H6.054A1.054,1.054,0,0,0,5,28.2v6.323A1.054,1.054,0,0,0,6.054,35.576Zm5.269-2.108H8.593l2.729-2.729ZM9.837,29.253,7.108,31.982V29.253Z" transform="translate(-0.785 0.252)" fill="#e29152"/>
  <path id="Path_615" data-name="Path 615" d="M12.376,47H6.054A1.054,1.054,0,0,0,5,48.054v6.323A1.054,1.054,0,0,0,6.054,55.43h6.323a1.054,1.054,0,0,0,1.054-1.054V48.054A1.054,1.054,0,0,0,12.376,47Zm-1.054,6.323H7.108V49.108h4.215Z" transform="translate(-0.785 1.473)" fill="#e29152"/>
  <path id="Path_616" data-name="Path 616" d="M13.736,35.29l-1.791,1.8H6.054A1.054,1.054,0,0,0,5,38.146v6.323a1.054,1.054,0,0,0,1.054,1.054h6.323a1.054,1.054,0,0,0,1.054-1.054V38.578l1.8-1.791ZM9.837,39.2,7.108,41.929V39.2Zm1.486,4.215H8.593l2.729-2.729Z" transform="translate(-0.785 0.844)" fill="#e29152"/>
  <path id="Path_617" data-name="Path 617" d="M15,28H45.559v2.108H15Z" transform="translate(-0.247 0.452)" fill="#e29152"/>
  <path id="Path_618" data-name="Path 618" d="M15,48H28.7v2.108H15Z" transform="translate(-0.247 1.527)" fill="#e29152"/>
  <path id="Path_619" data-name="Path 619" d="M15,52H45.559v2.108H15Z" transform="translate(-0.247 1.742)" fill="#e29152"/>
  <path id="Path_620" data-name="Path 620" d="M66.028,23.435,61.813,19.22a1.054,1.054,0,0,0-1.5,0l-8.736,8.746V2.054A1.054,1.054,0,0,0,50.527,1H2.054A1.054,1.054,0,0,0,1,2.054V65.28a1.054,1.054,0,0,0,1.054,1.054H50.527a1.054,1.054,0,0,0,1.054-1.054V39.368L66.028,24.931a1.054,1.054,0,0,0,0-1.5ZM36.132,47.1l2.013,2.013-3.53,1.517Zm1.128-1.844L56.849,25.669,59.579,28.4,39.989,47.987ZM49.473,64.226H3.108V3.108H49.473V30.073L45.88,33.667H15.753v2.108h28.02l-4.215,4.215h-23.8V42.1h21.7L35.342,44.2H15.753v2.108h18.42l-2.529,5.912a1.052,1.052,0,0,0,1.38,1.38L40.4,50.443a1.17,1.17,0,0,0,.337-.221l8.736-8.746ZM61.065,26.912l-2.729-2.729,2.729-2.729,2.729,2.729Z" transform="translate(-1 -1)" fill="#e29152"/>
</svg>
